<svg xmlns="http://www.w3.org/2000/svg" viewBox="0 0 1600 900" width="1600" height="900" role="img" aria-labelledby="t d">
 <title id="t">Qwen3.8-27B decode vs context: OpenVINO MTP5 vs vLLM MTP4 vs llama.cpp Q8_0 on one B70 each</title>
 <desc id="d">Decode tok/s at 512..96K. OV: 62.1 56.5 50.8 41.3 25.0 15.2. vLLM: 58.1 34.5 13.2 3.4 1.4 0.8. llama.cpp: flat 14.0</desc>
 <rect width="1600" height="900" fill="#07111f"/>
 <text x="60" y="56" fill="#68a7ff" font-size="20" font-weight="600" font-family="Segoe UI, Inter, sans-serif" letter-spacing="2">DECODE vs CONTEXT · 3 ENGINES · QWEN3.8-27B · 1× ARC PRO B70 EACH · 2026-09-14</text>
 <text x="60" y="82" fill="#8fa3c0" font-size="14" font-family="Segoe UI, Inter, sans-serif">greedy · C1 · n=5 ≤8K, n=3 ≥32K · same filler text · medians</text>
 <line x1="110" y1="700" x2="1540" y2="700" stroke="#26364e" stroke-width="2"/>
 <line x1="110" y1="120" x2="110" y2="700" stroke="#26364e" stroke-width="2"/>
 <!-- y scale: 0 at 700, 70 tps at 120 => 8.2857 px/tps -->
 <g stroke="#1a2740" stroke-width="1">
  <line x1="110" y1="617.1" x2="1540" y2="617.1"/><line x1="110" y1="534.3" x2="1540" y2="534.3"/>
  <line x1="110" y1="451.4" x2="1540" y2="451.4"/><line x1="110" y1="368.6" x2="1540" y2="368.6"/>
  <line x1="110" y1="285.7" x2="1540" y2="285.7"/><line x1="110" y1="202.9" x2="1540" y2="202.9"/>
 </g>
 <g fill="#5c7099" font-size="14" font-family="Segoe UI, Inter, sans-serif" text-anchor="end">
  <text x="98" y="705">0</text><text x="98" y="622">10</text><text x="98" y="539">20</text>
  <text x="98" y="456">30</text><text x="98" y="373">40</text><text x="98" y="290">50</text><text x="98" y="207">60</text><text x="98" y="126">70</text>
 </g>
 <!-- x: log-ish positions 512,2K,8K,32K,64K,96K at 240,480,720,960,1200,1440 -->
 <!-- OV: 62.1 56.5 50.8 41.3 25.0 15.2 -> y = 700 - tps*8.2857 -->
 <polyline points="240,185.1 480,231.5 720,279.1 960,357.4 1200,492.9 1440,574.1" fill="none" stroke="#81c9ff" stroke-width="4"/>
 <!-- vLLM: 58.1 34.5 13.2 3.4 1.4 0.8 -->
 <polyline points="240,218.8 480,414.1 720,590.6 960,671.8 1200,688.4 1440,693.4" fill="none" stroke="#e8a87c" stroke-width="4"/>
 <!-- llama: 14.0 flat -->
 <polyline points="240,584.0 480,584.0 720,584.0 960,584.0 1200,584.0 1440,584.0" fill="none" stroke="#7d9b76" stroke-width="4" stroke-dasharray="10,6"/>
 <g fill="#81c9ff"><circle cx="240" cy="185.1" r="6"/><circle cx="480" cy="231.5" r="6"/><circle cx="720" cy="279.1" r="6"/><circle cx="960" cy="357.4" r="6"/><circle cx="1200" cy="492.9" r="6"/><circle cx="1440" cy="574.1" r="6"/></g>
 <g fill="#e8a87c"><circle cx="240" cy="218.8" r="6"/><circle cx="480" cy="414.1" r="6"/><circle cx="720" cy="590.6" r="6"/><circle cx="960" cy="671.8" r="6"/><circle cx="1200" cy="688.4" r="6"/><circle cx="1440" cy="693.4" r="6"/></g>
 <g fill="#7d9b76"><circle cx="240" cy="584.0" r="6"/><circle cx="480" cy="584.0" r="6"/><circle cx="720" cy="584.0" r="6"/><circle cx="960" cy="584.0" r="6"/><circle cx="1200" cy="584.0" r="6"/><circle cx="1440" cy="584.0" r="6"/></g>
 <g fill="#e8eefb" font-size="15" font-weight="600" font-family="Segoe UI, Inter, sans-serif" text-anchor="middle">
  <text x="240" y="168">62.1</text><text x="480" y="214">56.5</text><text x="720" y="262">50.8</text>
  <text x="960" y="340">41.3</text><text x="1200" y="476">25.0</text><text x="1440" y="557">15.2</text>
 </g>
 <g fill="#e8a87c" font-size="14" font-family="Segoe UI, Inter, sans-serif" text-anchor="middle">
  <text x="268" y="226">58.1</text><text x="508" y="434">34.5</text><text x="748" y="606">13.2</text>
  <text x="988" y="660">3.4</text><text x="1228" y="678">1.4</text><text x="1440" y="712">0.8</text>
 </g>
 <g fill="#7d9b76" font-size="14" font-family="Segoe UI, Inter, sans-serif" text-anchor="middle">
  <text x="240" y="566">14.0</text><text x="720" y="566">14.0</text><text x="1200" y="566">14.0</text><text x="1440" y="566">14.0</text>
 </g>
 <g fill="#8fa3c0" font-size="16" font-family="Segoe UI, Inter, sans-serif" text-anchor="middle">
  <text x="240" y="732">512</text><text x="480" y="732">2K</text><text x="720" y="732">8K</text>
  <text x="960" y="732">32K</text><text x="1200" y="732">64K</text><text x="1440" y="732">96K</text>
 </g>
 <g font-size="15" font-family="Segoe UI, Inter, sans-serif">
  <rect x="130" y="60" width="14" height="14" fill="#81c9ff"/><text x="152" y="72" fill="#c9d8f0">OpenVINO GenAI · int8-ov · MTP nat5</text>
  <rect x="470" y="60" width="14" height="14" fill="#e8a87c"/><text x="492" y="72" fill="#c9d8f0">vLLM XPU · GPTQ-Int4 · MTP4 · fp8 KV</text>
  <rect x="850" y="60" width="14" height="14" fill="#7d9b76"/><text x="872" y="72" fill="#c9d8f0">llama.cpp SYCL · Q8_0 · no spec</text>
 </g>
 <text x="60" y="770" fill="#5c7099" font-size="13" font-family="Segoe UI, Inter, sans-serif">OV ≤48K: MTP+KV f16 · 64K: mixed KV fix (main u8, draft f16) · 96K: no-MTP u8 · llama.cpp flat 14.0 at every length · vLLM MTP4 collapses with context</text>
 <text x="60" y="794" fill="#5c7099" font-size="13" font-family="Segoe UI, Inter, sans-serif">Power (energy counter): OV 202–211 W @230W cap · vLLM ~149 W · llama ~90 W @150W cap — none of the three power-limited at C1</text>
 <text x="60" y="818" fill="#5c7099" font-size="13" font-family="Segoe UI, Inter, sans-serif">128K: llama.cpp init-crash (27 GiB Q8_0 + 128K KV &gt; 32 GB) · OV no-MTP u8 prefills 128K (465 t/s) · vLLM config max 100K</text>
 <text x="60" y="862" fill="#5c7099" font-size="12" font-family="Segoe UI, Inter, sans-serif">Source: B70-DOCS qw38-ov-mtp-20260914 ctx-sweep-{openvino,llamacpp,vllm}.json · cookbook docs/qwen38-27/ENGINE-COMPARISON-CTX-20260914.md</text>
</svg>
